<mxfile host="app.diagrams.net" agent="Mozilla/5.0 (Windows NT 10.0; Win64; x64) AppleWebKit/537.36 (KHTML, like Gecko) Chrome/131.0.0.0 Safari/537.36" version="24.8.6">
  <diagram name="PÃ¡gina-1" id="gJw8Lhun-Aa-bNbXO7BL">
    <mxGraphModel dx="1290" dy="557" grid="1" gridSize="10" guides="1" tooltips="1" connect="1" arrows="1" fold="1" page="1" pageScale="1" pageWidth="827" pageHeight="1169" math="0" shadow="0">
      <root>
        <mxCell id="0" />
        <mxCell id="1" parent="0" />
        <mxCell id="4" value="Conjunto" style="rounded=1;arcSize=40;strokeWidth=2" parent="1" vertex="1">
          <mxGeometry x="509" y="8" width="95" height="48" as="geometry" />
        </mxCell>
        <mxCell id="5" value="Binaria" style="curved=1;startArrow=none;endArrow=block;exitX=1;exitY=0.5;entryX=0;entryY=0.5;" parent="1" edge="1">
          <mxGeometry relative="1" as="geometry">
            <Array as="points" />
            <mxPoint x="165" y="32" as="sourcePoint" />
            <mxPoint x="269" y="32" as="targetPoint" />
          </mxGeometry>
        </mxCell>
        <mxCell id="6" value="Ternaria" style="curved=1;startArrow=none;endArrow=block;exitX=1;exitY=0.5;entryX=0;entryY=0.5;" parent="1" target="4" edge="1">
          <mxGeometry relative="1" as="geometry">
            <Array as="points" />
            <mxPoint x="396" y="32" as="sourcePoint" />
          </mxGeometry>
        </mxCell>
      </root>
    </mxGraphModel>
  </diagram>
</mxfile>
